# xmcd
#
# Track frame offsets: 
#        150
#        13738
#        25754
#        42755
#        54205
#        67803
#        87134
#        102454
#        116955
#        130382
#        143133
#
# Disc length: 2054 seconds
#
# Revision: 0
# Processed by: cddbd v1.5.2PL0 Copyright (c) Steve Scherf et al.
# Submitted via: ExactAudioCopy v0.95b4
#
DISCID=8e08040b
DTITLE=Jonas Otter - Hospice For Romantic Hearts
DYEAR=2007
DGENRE=Country
TTITLE0=Hospice For Romatic Hearts
TTITLE1=Mama Oh Mama
TTITLE2=When Love Says Goodbye
TTITLE3=Really Gone Gone
TTITLE4=I'm All Country Now
TTITLE5=If You Don't Love Me Anymore
TTITLE6=The Right To Remain Silent
TTITLE7=I Can't Decide
TTITLE8=Falling Into You
TTITLE9=All In
TTITLE10=Nobody Knows That Girl
EXTD=
EXTT0=
EXTT1=
EXTT2=
EXTT3=
EXTT4=
EXTT5=
EXTT6=
EXTT7=
EXTT8=
EXTT9=
EXTT10=
PLAYORDER=
